<svg width="256" height="256" viewBox="0 0 256 256" xmlns="http://www.w3.org/2000/svg">
  <!-- Background circle -->
  <circle cx="128" cy="128" r="128" fill="#1e40af" opacity="0.1"/>
  <circle cx="128" cy="128" r="120" fill="#3b82f6" opacity="0.05"/>
  
  <!-- Sound waves (outer) -->
  <path d="M 85 128 Q 85 105 100 95" stroke="#60a5fa" stroke-width="3" fill="none" stroke-linecap="round" stroke-linejoin="round"/>
  <path d="M 171 128 Q 171 105 156 95" stroke="#60a5fa" stroke-width="3" fill="none" stroke-linecap="round" stroke-linejoin="round"/>
  
  <!-- Sound waves (middle) -->
  <path d="M 80 128 Q 80 98 105 80" stroke="#3b82f6" stroke-width="3" fill="none" stroke-linecap="round" stroke-linejoin="round"/>
  <path d="M 176 128 Q 176 98 151 80" stroke="#3b82f6" stroke-width="3" fill="none" stroke-linecap="round" stroke-linejoin="round"/>
  
  <!-- Sound waves (inner animated effect lines) -->
  <path d="M 90 128 Q 90 112 110 100" stroke="#1e40af" stroke-width="2" fill="none" stroke-linecap="round" opacity="0.6"/>
  <path d="M 166 128 Q 166 112 146 100" stroke="#1e40af" stroke-width="2" fill="none" stroke-linecap="round" opacity="0.6"/>
  
  <!-- Microphone body -->
  <rect x="110" y="75" width="36" height="65" rx="18" fill="#1e40af" stroke="#1e3a8a" stroke-width="2"/>
  
  <!-- Microphone top (capsule) -->
  <ellipse cx="128" cy="75" rx="18" ry="15" fill="#2563eb"/>
  
  <!-- Microphone grille lines -->
  <line x1="115" y1="85" x2="141" y2="85" stroke="#1e3a8a" stroke-width="1.5" opacity="0.5"/>
  <line x1="115" y1="95" x2="141" y2="95" stroke="#1e3a8a" stroke-width="1.5" opacity="0.5"/>
  <line x1="115" y1="105" x2="141" y2="105" stroke="#1e3a8a" stroke-width="1.5" opacity="0.5"/>
  <line x1="115" y1="115" x2="141" y2="115" stroke="#1e3a8a" stroke-width="1.5" opacity="0.5"/>
  <line x1="115" y1="125" x2="141" y2="125" stroke="#1e3a8a" stroke-width="1.5" opacity="0.5"/>
  
  <!-- Microphone neck -->
  <rect x="120" y="138" width="16" height="20" rx="3" fill="#1e40af" stroke="#1e3a8a" stroke-width="1.5"/>
  
  <!-- Microphone stand -->
  <ellipse cx="128" cy="165" rx="22" ry="12" fill="#1e40af" stroke="#1e3a8a" stroke-width="2"/>
  
  <!-- Stand base -->
  <path d="M 100 165 L 105 190 Q 128 200 151 190 L 156 165" stroke="#1e3a8a" stroke-width="2" fill="none" stroke-linecap="round"/>
  
  <!-- Base circle -->
  <ellipse cx="128" cy="190" rx="28" ry="8" fill="#1e40af" opacity="0.8" stroke="#1e3a8a" stroke-width="2"/>
  
  <!-- Highlight for 3D effect -->
  <ellipse cx="128" cy="190" rx="24" ry="6" fill="#3b82f6" opacity="0.5"/>
  
  <!-- Text label below (optional) -->
  <text x="128" y="225" font-family="Arial, sans-serif" font-size="18" font-weight="bold" fill="#1e40af" text-anchor="middle" opacity="0.7">fnwispr</text>
</svg>